<?xml version="1.0" encoding="UTF-8"?><svg id="a" xmlns="http://www.w3.org/2000/svg" viewBox="0 0 416.63 373.25"><defs><style>.b{fill:#fff;font-family:ErasITC-Demi, Eras Demi ITC;font-size:50px;isolation:isolate;}.c{stroke-miterlimit:10;}.c,.d,.e,.f{fill:#231f20;stroke:#231f20;}.d{stroke-miterlimit:10;stroke-width:1px;}.e{stroke-width:1px;}.e,.f{stroke-miterlimit:10;}.f{stroke-width:1px;}</style></defs><ellipse class="d" cx="141.77" cy="75.92" rx="54.4" ry="76.7" transform="translate(-15.14 40.67) rotate(-15.51)"/><ellipse class="f" cx="363.87" cy="177.74" rx="68.8" ry="48.8" transform="translate(59.79 445.2) rotate(-67.37)"/><ellipse class="d" cx="275.06" cy="75.84" rx="76.7" ry="54.4" transform="translate(128.43 320.6) rotate(-74.49)"/><ellipse class="e" cx="52.75" cy="177.7" rx="48.8" ry="68.8" transform="translate(-64.32 33.98) rotate(-22.63)"/><path class="c" d="M210.16,186.71s-105.2,3.3-157.4,133c-27.9,79.6,57.1,50,89.1,35.2,32-14.8,108.3-15.9,133.2,1.1,24.9,17,112.5,39.8,88.9-39.8-52.3-121.5-134.5-129.5-153.8-129.5h0Z"/><text class="b" transform="translate(81.47 317.02)"><tspan x="0" y="0">SCHEDULE</tspan></text></svg>